v -16.788 18.975 31.455
v 16.788 28.100 23.662
v 17.000 18.038 30.359
v 16.788 18.975 31.455
v 13.155 30.468 26.435
v 13.500 39.564 42.950
v 16.947 27.637 23.120
v 13.500 39.613 43.575
v 13.500 39.248 44.764
v 13.500 38.856 45.252
v 13.500 39.505 44.192
v -17.000 18.038 30.359
v -15.196 20.536 33.283
v 15.196 20.536 33.283
v -13.500 38.355 45.629
v -13.500 37.776 45.869
v -13.500 37.155 45.957
v -13.500 36.532 45.888
v 13.500 38.355 45.629
v 13.500 37.155 45.957
v 13.500 37.776 45.869
v 13.500 36.532 45.888
v 16.947 18.512 30.913
v -16.947 18.512 30.913
v -13.500 38.856 45.252
v -16.788 28.100 23.662
v -13.500 39.248 44.764
v -13.500 39.505 44.192
v -13.500 39.613 43.575
v -13.500 39.564 42.950
v -13.155 30.468 26.435
v -16.947 27.637 23.120
v -19.500 -0.314 -5.992
v 19.500 0.471 -5.981
v 19.500 -0.314 -5.992
v -19.500 0.471 -5.981
v -19.500 1.247 -5.869
v 19.500 1.247 -5.869
v -12.000 32.553 47.354
v 12.000 32.553 47.354
v 12.000 33.101 47.916
v -12.000 33.101 47.916
v 19.500 4.015 -4.459
v -19.500 4.015 -4.459
v -19.500 4.562 -3.897
v 19.500 4.562 -3.897
v -19.500 3.398 -4.945
v 19.500 2.724 -5.346
v 19.500 3.398 -4.945
v -19.500 2.724 -5.346
v -19.500 2.003 -5.656
v 19.500 2.003 -5.656
v 19.500 -5.346 -2.724
v -19.500 -5.346 -2.724
v 19.500 -5.656 -2.003
v -19.500 -5.656 -2.003
v 12.000 42.148 40.189
v -12.000 42.532 40.874
v 12.000 42.532 40.874
v -12.000 42.148 40.189
v 12.000 41.678 39.560
v -12.000 41.678 39.560
v 19.500 -1.854 -5.706
v -19.500 -1.854 -5.706
v -19.500 -2.583 -5.416
v 19.500 -2.583 -5.416
v 19.500 -3.897 -4.562
v -19.500 -3.897 -4.562
v -19.500 -4.459 -4.015
v 19.500 -4.459 -4.015
v -19.500 -5.992 0.314
v 19.500 -5.900 1.093
v 19.500 -5.992 0.314
v -19.500 -5.900 1.093
v 19.500 -5.981 -0.471
v -19.500 -5.981 -0.471
v -19.500 -5.869 -1.247
v 19.500 -5.869 -1.247
v 12.000 43.016 42.364
v -12.000 43.016 42.364
v -12.000 43.108 43.143
v 12.000 43.108 43.143
v -19.500 -5.032 3.268
v 19.500 -4.562 3.897
v 19.500 -5.032 3.268
v -19.500 -4.562 3.897
v 19.500 -5.416 2.583
v -19.500 -5.416 2.583
v -19.500 -5.706 1.854
v 19.500 -5.706 1.854
v -7.391 22.404 35.470
v 7.391 22.404 35.470
v 12.000 42.462 46.181
v 12.000 42.061 46.856
v -12.000 42.061 46.856
v -12.000 42.462 46.181
v -19.322 0.990 10.397
v 19.322 0.990 10.397
v 19.500 -1.093 -5.900
v -19.500 -1.093 -5.900
v 19.500 -3.268 -5.032
v -19.500 -3.268 -5.032
v -19.500 -4.945 -3.398
v -19.500 0.132 9.393
v -19.500 9.256 1.599
v 19.500 -4.945 -3.398
v 19.500 0.132 9.393
v 19.500 9.256 1.599
v 8.294 16.109 28.100
v -8.294 16.109 28.100
v 12.000 42.822 41.603
v -12.000 42.822 41.603
v 12.000 37.430 49.449
v -12.000 37.430 49.449
v -12.000 38.209 49.357
v 12.000 38.209 49.357
v 12.000 38.970 49.163
v -12.000 38.970 49.163
v 12.000 33.718 48.402
v -12.000 33.718 48.402
v 12.000 34.392 48.803
v -12.000 34.392 48.803
v -19.322 10.114 2.604
v 19.322 10.114 2.604
v 8.294 25.234 20.307
v -8.294 25.234 20.307
v 12.000 43.097 43.928
v -12.000 43.097 43.928
v 12.000 41.013 48.020
v -12.000 40.384 48.489
v 12.000 40.384 48.489
v -12.000 41.013 48.020
v 12.000 42.772 45.460
v -12.000 42.772 45.460
v 17.976 2.466 12.126
v -17.976 2.466 12.126
v -12.000 42.985 44.705
v 12.000 42.985 44.705
v -12.000 36.645 49.439
v 12.000 35.868 49.326
v -12.000 35.868 49.326
v 12.000 36.645 49.439
v -12.000 41.575 47.472
v 12.000 41.575 47.472
v 12.000 39.699 48.873
v -12.000 39.699 48.873
v 12.000 35.113 49.113
v -12.000 35.113 49.113
v 6.563 30.597 26.586
v -6.563 30.597 26.586
vn 0.275 -0.689 0.671
vn 0.001 -0.760 0.650
vn -0.919 0.392 -0.046
vn -0.275 -0.689 0.671
vn -0.001 -0.760 0.650
vn 0.000 -0.760 0.649
vn -0.919 -0.107 0.380
vn -0.920 -0.131 0.370
vn -0.899 -0.173 0.402
vn -0.826 -0.288 0.484
vn -0.673 -0.453 0.584
vn -0.658 -0.466 0.591
vn 0.673 0.648 -0.356
vn 0.001 0.760 -0.649
vn 0.658 0.657 -0.368
vn 0.275 0.770 -0.575
vn -0.275 0.770 -0.575
vn -0.658 0.657 -0.368
vn -0.996 0.058 0.068
vn -0.000 -0.760 0.649
vn 0.000 -0.760 0.649
vn -0.966 -0.028 0.256
vn -0.981 0.027 0.191
vn -0.990 0.086 0.115
vn -0.987 0.061 0.148
vn -0.920 0.055 0.389
vn -0.919 0.236 0.314
vn -0.919 0.235 0.315
vn -0.000 -0.760 0.649
vn -0.000 -0.760 0.649
vn 0.000 0.760 -0.649
vn 0.000 0.760 -0.649
vn 0.996 0.058 0.068
vn 0.996 0.058 0.068
vn 0.990 0.092 0.108
vn 0.989 0.118 0.094
vn 0.919 0.340 0.202
vn -0.919 0.362 0.155
vn 0.000 -0.760 0.649
vn -0.000 -0.760 0.649
vn 0.000 -0.760 0.649
vn 0.000 -0.760 0.649
vn 0.000 -0.760 0.649
vn 0.000 -0.760 0.649
vn 0.000 -0.760 0.649
vn 0.000 -0.760 0.649
vn 0.826 0.523 -0.209
vn 0.899 0.424 -0.108
vn -0.919 0.097 0.383
vn -0.919 0.046 0.391
vn 0.919 0.097 0.383
vn 0.658 -0.466 0.591
vn 0.673 -0.453 0.584
vn 0.919 -0.057 0.390
vn 0.826 -0.288 0.484
vn -0.000 0.760 -0.649
vn 0.000 0.760 -0.649
vn 0.000 0.760 -0.649
vn 0.000 0.760 -0.649
vn 0.000 0.760 -0.649
vn -0.000 0.760 -0.649
vn 0.985 0.159 0.072
vn 0.976 0.216 0.038
vn 0.920 0.387 0.067
vn 0.920 0.358 0.162
vn 0.919 0.387 -0.073
vn 0.949 0.315 -0.025
vn 0.919 0.392 -0.046
vn 0.920 0.391 -0.031
vn 0.919 0.390 0.057
vn 0.919 0.395 0.005
vn 0.987 0.061 0.148
vn 0.990 0.086 0.115
vn 0.919 0.235 0.315
vn 0.919 0.236 0.314
vn 0.919 0.309 0.244
vn 0.920 0.307 0.246
vn 0.919 0.276 0.283
vn 0.919 0.380 0.107
vn 0.919 0.362 0.155
vn -0.919 0.395 0.005
vn -0.920 0.391 -0.031
vn -0.919 0.340 0.202
vn -0.920 0.358 0.162
vn -0.000 -0.760 0.649
vn -0.000 -0.760 0.649
vn -0.000 -0.760 0.649
vn -0.000 -0.760 0.649
vn -0.000 -0.760 0.649
vn 0.000 -0.760 0.649
vn 0.000 -0.760 0.649
vn -0.919 0.380 0.107
vn -0.920 0.387 0.067
vn -0.919 0.390 0.057
vn -0.919 0.193 0.345
vn -0.920 0.150 0.363
vn -0.919 0.146 0.366
vn -0.919 -0.005 0.395
vn -0.919 -0.057 0.390
vn -0.920 -0.043 0.390
vn -0.919 0.276 0.283
vn -0.920 0.307 0.246
vn -0.919 0.309 0.244
vn 0.919 0.193 0.345
vn 0.919 0.146 0.366
vn 0.920 0.150 0.363
vn 0.919 -0.005 0.395
vn 0.920 -0.043 0.390
vn 0.919 0.046 0.391
vn 0.920 0.055 0.389
vn 0.981 0.027 0.191
vn 0.966 -0.028 0.256
vn 0.919 -0.107 0.380
vn 0.920 -0.131 0.370
vn 0.899 -0.173 0.402
vn -0.000 0.760 -0.649
vn -0.996 0.058 0.068
vn -0.990 0.092 0.108
vn -0.001 0.760 -0.649
vn -0.989 0.118 0.094
vn -0.985 0.159 0.072
vn -0.976 0.216 0.038
vn -0.949 0.315 -0.025
vn -0.919 0.387 -0.073
vn -0.899 0.424 -0.108
vn -0.826 0.523 -0.209
vn -0.673 0.648 -0.356
vn 0.000 0.760 -0.649
vn -0.000 0.760 -0.649
vn -0.000 0.760 -0.649
vn -0.000 0.760 -0.649
vn -0.000 0.760 -0.649
vn 0.000 0.013 -1.000
vn 0.000 0.013 -1.000
vn 0.000 0.143 -0.990
vn 0.000 0.143 -0.990
vn 0.000 -0.716 0.698
vn 0.000 -0.716 0.698
vn 0.000 0.716 -0.698
vn 0.000 0.716 -0.698
vn 0.000 0.511 -0.859
vn 0.000 0.511 -0.859
vn 0.000 0.619 -0.785
vn 0.000 0.619 -0.785
vn 0.000 0.271 -0.962
vn 0.000 0.271 -0.962
vn 0.000 0.395 -0.919
vn 0.000 0.395 -0.919
vn 0.000 -0.919 -0.395
vn 0.000 -0.919 -0.395
vn 0.000 0.872 -0.489
vn 0.000 0.872 -0.489
vn 0.000 0.801 -0.598
vn 0.000 0.801 -0.598
vn 0.000 -0.371 -0.929
vn 0.000 -0.371 -0.929
vn 0.000 -0.698 -0.716
vn 0.000 -0.698 -0.716
vn 0.000 -0.993 0.118
vn 0.000 -0.993 0.118
vn 0.000 -1.000 -0.013
vn 0.000 -1.000 -0.013
vn 0.000 -0.962 -0.271
vn 0.000 -0.962 -0.271
vn 0.000 -0.990 -0.143
vn 0.000 -0.990 -0.143
vn 0.000 0.993 -0.118
vn 0.000 0.993 -0.118
vn 0.000 -0.801 0.598
vn 0.000 -0.801 0.598
vn 0.000 -0.872 0.489
vn 0.000 -0.872 0.489
vn 0.000 -0.929 0.371
vn 0.000 -0.929 0.371
vn 0.000 -0.969 0.246
vn 0.000 -0.969 0.246
vn 0.000 -0.760 0.649
vn 0.000 -0.760 0.649
vn 0.000 0.859 0.511
vn 0.000 0.859 0.511
vn 0.000 -0.760 0.649
vn 0.000 -0.760 0.649
vn 0.000 -0.118 -0.993
vn 0.000 -0.118 -0.993
vn 0.000 -0.246 -0.969
vn 0.000 -0.246 -0.969
vn 0.000 -0.489 -0.872
vn 0.000 -0.489 -0.872
vn 0.000 -0.598 -0.801
vn 0.000 -0.598 -0.801
vn -1.000 0.000 0.000
vn -1.000 0.000 0.000
vn -1.000 0.000 0.000
vn -1.000 0.000 0.000
vn -1.000 0.000 0.000
vn -1.000 0.000 0.000
vn -1.000 0.000 0.000
vn -1.000 0.000 0.000
vn -1.000 0.000 0.000
vn -1.000 0.000 0.000
vn -1.000 0.000 0.000
vn -1.000 0.000 0.000
vn -1.000 0.000 0.000
vn -1.000 0.000 0.000
vn -1.000 0.000 0.000
vn -1.000 0.000 0.000
vn -1.000 0.000 0.000
vn -1.000 0.000 0.000
vn -1.000 0.000 0.000
vn -1.000 0.000 0.000
vn -1.000 0.000 0.000
vn -1.000 0.000 0.000
vn -1.000 0.000 0.000
vn -1.000 0.000 0.000
vn -1.000 0.000 0.000
vn 1.000 0.000 0.000
vn 1.000 0.000 0.000
vn 1.000 0.000 0.000
vn 1.000 0.000 0.000
vn 1.000 0.000 0.000
vn 1.000 0.000 0.000
vn 1.000 0.000 0.000
vn 1.000 0.000 0.000
vn 1.000 0.000 0.000
vn 1.000 0.000 0.000
vn 1.000 0.000 0.000
vn 1.000 0.000 0.000
vn 1.000 0.000 0.000
vn 1.000 0.000 0.000
vn 1.000 0.000 0.000
vn 1.000 0.000 0.000
vn 1.000 0.000 0.000
vn 1.000 0.000 0.000
vn 1.000 0.000 0.000
vn 1.000 0.000 0.000
vn 1.000 0.000 0.000
vn 1.000 0.000 0.000
vn 1.000 0.000 0.000
vn 1.000 0.000 0.000
vn 1.000 0.000 0.000
vn 0.000 -0.785 -0.619
vn 0.000 -0.785 -0.619
vn 0.000 -0.859 -0.511
vn 0.000 -0.859 -0.511
vn 0.000 -0.760 0.649
vn 0.000 -0.760 0.649
vn 0.000 0.929 -0.371
vn 0.000 0.929 -0.371
vn 0.000 0.969 -0.246
vn 0.000 0.969 -0.246
vn 0.000 0.118 0.993
vn 0.000 0.118 0.993
vn 0.000 0.246 0.969
vn 0.000 0.246 0.969
vn 0.000 -0.619 0.785
vn 0.000 -0.619 0.785
vn 0.000 -0.511 0.859
vn 0.000 -0.511 0.859
vn 0.000 0.760 -0.649
vn 0.000 0.760 -0.649
vn 0.000 0.760 -0.649
vn 0.000 0.760 -0.649
vn 0.000 1.000 0.013
vn 0.000 1.000 0.013
vn 0.000 0.598 0.801
vn 0.000 0.598 0.801
vn 0.000 0.919 0.395
vn 0.000 0.919 0.395
vn 0.000 -0.760 0.649
vn 0.000 -0.760 0.649
vn 0.000 -0.760 0.649
vn 0.000 -0.760 0.649
vn 0.000 0.962 0.271
vn 0.000 0.962 0.271
vn 0.000 0.990 0.143
vn 0.000 0.990 0.143
vn 0.000 -0.143 0.990
vn 0.000 -0.143 0.990
vn 0.000 -0.013 1.000
vn 0.000 -0.013 1.000
vn 0.000 0.698 0.716
vn 0.000 0.698 0.716
vn 0.000 0.785 0.619
vn 0.000 0.785 0.619
vn 0.000 0.489 0.872
vn 0.000 0.489 0.872
vn 0.000 0.371 0.929
vn 0.000 0.371 0.929
vn 0.000 -0.271 0.962
vn 0.000 -0.271 0.962
vn 0.000 -0.395 0.919
vn 0.000 -0.395 0.919
vn 0.000 0.760 -0.649
vn 0.000 0.760 -0.649
vn 0.000 0.760 -0.649
vn 0.000 0.760 -0.649
f 40//1 4//1 41//1
f 23//2 4//2 40//2
f 80//3 30//3 81//3
f 1//4 39//4 42//4
f 39//5 1//5 24//5
f 14//6 40//6 92//6
f 18//7 148//7 141//7
f 24//8 148//8 18//8
f 122//9 148//9 24//9
f 120//10 122//10 24//10
f 1//11 120//11 24//11
f 1//12 42//12 120//12
f 7//13 2//13 59//13
f 7//14 61//14 2//14
f 2//15 57//15 59//15
f 2//16 61//16 57//16
f 26//17 60//17 62//17
f 60//18 26//18 58//18
f 105//19 104//19 24//19
f 13//20 136//20 110//20
f 107//21 98//21 84//21
f 18//22 17//22 24//22
f 24//23 17//23 16//23
f 15//24 25//24 24//24
f 16//25 15//25 24//25
f 17//26 115//26 16//26
f 15//27 132//27 25//27
f 15//28 130//28 132//28
f 91//29 13//29 110//29
f 13//30 91//30 39//30
f 124//31 108//31 46//31
f 124//32 7//32 108//32
f 107//33 108//33 23//33
f 23//34 108//34 7//34
f 7//35 10//35 23//35
f 9//36 10//36 7//36
f 9//37 93//37 94//37
f 134//38 28//38 96//38
f 13//39 97//39 136//39
f 104//40 86//40 97//40
f 92//41 109//41 14//41
f 107//42 23//42 3//42
f 107//43 3//43 98//43
f 98//44 3//44 14//44
f 23//45 40//45 3//45
f 14//46 3//46 40//46
f 111//47 7//47 59//47
f 111//48 79//48 7//48
f 115//49 118//49 16//49
f 17//50 114//50 115//50
f 21//51 117//51 116//51
f 4//52 119//52 41//52
f 119//53 4//53 23//53
f 140//54 22//54 142//54
f 121//55 119//55 23//55
f 105//56 123//56 45//56
f 125//57 5//57 124//57
f 124//58 5//58 7//58
f 61//59 5//59 125//59
f 7//60 5//60 61//60
f 62//61 150//61 126//61
f 11//62 9//62 7//62
f 8//63 11//63 7//63
f 138//64 11//64 8//64
f 9//65 11//65 93//65
f 79//66 6//66 7//66
f 7//67 6//67 8//67
f 79//68 82//68 6//68
f 8//69 6//69 82//69
f 8//70 127//70 138//70
f 127//71 8//71 82//71
f 19//72 21//72 23//72
f 10//73 19//73 23//73
f 19//74 129//74 131//74
f 10//75 129//75 19//75
f 9//76 94//76 144//76
f 144//77 10//77 9//77
f 144//78 129//78 10//78
f 133//79 11//79 138//79
f 11//80 133//80 93//80
f 81//81 29//81 128//81
f 30//82 29//82 81//82
f 27//83 95//83 96//83
f 28//84 27//84 96//84
f 104//85 12//85 24//85
f 97//86 12//86 104//86
f 12//87 97//87 13//87
f 39//88 24//88 12//88
f 13//89 39//89 12//89
f 98//90 14//90 135//90
f 109//91 135//91 14//91
f 28//92 134//92 137//92
f 28//93 137//93 29//93
f 29//94 137//94 128//94
f 15//95 146//95 130//95
f 16//96 146//96 15//96
f 118//97 146//97 16//97
f 17//98 139//98 114//98
f 139//99 18//99 141//99
f 139//100 17//100 18//100
f 132//101 143//101 25//101
f 25//102 143//102 27//102
f 27//103 143//103 95//103
f 19//104 131//104 145//104
f 21//105 145//105 117//105
f 19//106 145//106 21//106
f 113//107 142//107 20//107
f 22//108 20//108 142//108
f 113//109 20//109 116//109
f 116//110 20//110 21//110
f 21//111 20//111 23//111
f 23//112 20//112 22//112
f 22//113 140//113 147//113
f 22//114 147//114 23//114
f 147//115 121//115 23//115
f 123//116 105//116 32//116
f 24//117 32//117 105//117
f 25//118 32//118 24//118
f 32//119 26//119 62//119
f 27//120 32//120 25//120
f 27//121 28//121 32//121
f 29//122 32//122 28//122
f 29//123 30//123 32//123
f 30//124 80//124 32//124
f 112//125 32//125 80//125
f 112//126 58//126 32//126
f 26//127 32//127 58//127
f 125//128 149//128 61//128
f 123//129 31//129 126//129
f 32//130 31//130 123//130
f 126//131 31//131 62//131
f 31//132 32//132 62//132
f 35//133 33//133 34//133
f 34//134 33//134 36//134
f 34//135 37//135 38//135
f 34//136 36//136 37//136
f 41//137 39//137 40//137
f 42//138 39//138 41//138
f 45//139 43//139 44//139
f 45//140 46//140 43//140
f 48//141 47//141 49//141
f 48//142 50//142 47//142
f 43//143 47//143 44//143
f 49//144 47//144 43//144
f 38//145 51//145 52//145
f 37//146 51//146 38//146
f 52//147 51//147 48//147
f 48//148 51//148 50//148
f 53//149 55//149 56//149
f 54//150 53//150 56//150
f 58//151 59//151 57//151
f 60//152 58//152 57//152
f 62//153 57//153 61//153
f 60//154 57//154 62//154
f 64//155 63//155 65//155
f 63//156 66//156 65//156
f 68//157 67//157 69//157
f 67//158 70//158 69//158
f 72//159 71//159 73//159
f 74//160 71//160 72//160
f 75//161 71//161 76//161
f 73//162 71//162 75//162
f 55//163 77//163 56//163
f 78//164 77//164 55//164
f 75//165 76//165 77//165
f 75//166 77//166 78//166
f 80//167 81//167 79//167
f 82//168 79//168 81//168
f 84//169 83//169 85//169
f 86//170 83//170 84//170
f 85//171 83//171 87//171
f 83//172 88//172 87//172
f 87//173 89//173 90//173
f 88//174 89//174 87//174
f 90//175 89//175 72//175
f 89//176 74//176 72//176
f 39//177 91//177 40//177
f 92//178 40//178 91//178
f 94//179 93//179 95//179
f 95//180 93//180 96//180
f 86//181 84//181 97//181
f 98//182 97//182 84//182
f 33//183 99//183 100//183
f 33//184 35//184 99//184
f 64//185 100//185 99//185
f 99//186 63//186 64//186
f 66//187 101//187 65//187
f 65//188 101//188 102//188
f 102//189 101//189 68//189
f 101//190 67//190 68//190
f 47//191 103//191 44//191
f 64//192 103//192 100//192
f 103//193 33//193 100//193
f 103//194 102//194 68//194
f 83//195 103//195 88//195
f 105//196 103//196 104//196
f 33//197 103//197 36//197
f 68//198 69//198 103//198
f 103//199 51//199 37//199
f 44//200 103//200 45//200
f 103//201 37//201 36//201
f 103//202 64//202 65//202
f 102//203 103//203 65//203
f 103//204 54//204 56//204
f 103//205 47//205 50//205
f 51//206 103//206 50//206
f 45//207 103//207 105//207
f 89//208 88//208 103//208
f 71//209 103//209 76//209
f 77//210 76//210 103//210
f 104//211 103//211 86//211
f 71//212 74//212 103//212
f 77//213 103//213 56//213
f 83//214 86//214 103//214
f 89//215 103//215 74//215
f 48//216 49//216 106//216
f 34//217 38//217 106//217
f 38//218 52//218 106//218
f 72//219 106//219 90//219
f 84//220 85//220 106//220
f 78//221 55//221 106//221
f 87//222 90//222 106//222
f 34//223 106//223 35//223
f 107//224 84//224 106//224
f 43//225 106//225 49//225
f 72//226 73//226 106//226
f 48//227 106//227 52//227
f 63//228 106//228 66//228
f 87//229 106//229 85//229
f 75//230 78//230 106//230
f 43//231 46//231 106//231
f 53//232 106//232 55//232
f 99//233 106//233 63//233
f 101//234 106//234 67//234
f 106//235 108//235 107//235
f 67//236 106//236 70//236
f 75//237 106//237 73//237
f 108//238 106//238 46//238
f 99//239 35//239 106//239
f 101//240 66//240 106//240
f 70//241 106//241 69//241
f 103//242 69//242 106//242
f 53//243 54//243 106//243
f 103//244 106//244 54//244
f 91//245 109//245 92//245
f 109//246 91//246 110//246
f 58//247 111//247 59//247
f 112//248 111//248 58//248
f 80//249 111//249 112//249
f 79//250 111//250 80//250
f 114//251 113//251 115//251
f 113//252 116//252 115//252
f 116//253 117//253 115//253
f 118//254 115//254 117//254
f 42//255 41//255 119//255
f 120//256 42//256 119//256
f 119//257 121//257 120//257
f 120//258 121//258 122//258
f 45//259 123//259 46//259
f 46//260 123//260 124//260
f 125//261 123//261 126//261
f 124//262 123//262 125//262
f 81//263 127//263 82//263
f 128//264 127//264 81//264
f 131//265 129//265 130//265
f 129//266 132//266 130//266
f 93//267 133//267 96//267
f 134//268 96//268 133//268
f 98//269 135//269 97//269
f 97//270 135//270 136//270
f 135//271 109//271 110//271
f 136//272 135//272 110//272
f 137//273 133//273 138//273
f 133//274 137//274 134//274
f 137//275 127//275 128//275
f 127//276 137//276 138//276
f 140//277 139//277 141//277
f 140//278 142//278 139//278
f 114//279 139//279 113//279
f 113//280 139//280 142//280
f 129//281 143//281 132//281
f 144//282 143//282 129//282
f 94//283 95//283 143//283
f 144//284 94//284 143//284
f 130//285 145//285 131//285
f 146//286 145//286 130//286
f 117//287 145//287 118//287
f 146//288 118//288 145//288
f 140//289 141//289 147//289
f 148//290 147//290 141//290
f 148//291 122//291 147//291
f 121//292 147//292 122//292
f 61//293 149//293 62//293
f 62//294 149//294 150//294
f 125//295 126//295 149//295
f 150//296 149//296 126//296
